<svg xmlns="http://www.w3.org/2000/svg" width="640" height="300" viewBox="0 0 640 300" font-family="sans-serif" font-size="13">
  <rect x="250" y="20" width="140" height="48" rx="6" fill="#eef3fb" stroke="#3b5b92"/>
  <text x="320" y="49" text-anchor="middle">CLI / URL handlers</text>

  <rect x="250" y="110" width="140" height="48" rx="6" fill="#eef3fb" stroke="#3b5b92"/>
  <text x="320" y="139" text-anchor="middle">Execution</text>

  <rect x="40" y="110" width="150" height="48" rx="6" fill="#eef3fb" stroke="#3b5b92"/>
  <text x="115" y="139" text-anchor="middle">Scanner</text>

  <rect x="450" y="110" width="150" height="48" rx="6" fill="#eef3fb" stroke="#3b5b92"/>
  <text x="525" y="139" text-anchor="middle">Electric</text>

  <rect x="250" y="210" width="140" height="48" rx="6" fill="#fbf3ee" stroke="#92653b"/>
  <text x="320" y="239" text-anchor="middle">Data Model</text>

  <line x1="320" y1="68" x2="320" y2="110" stroke="#444" marker-end="url(#a)"/>
  <line x1="320" y1="158" x2="320" y2="210" stroke="#444" marker-end="url(#a)"/>
  <line x1="250" y1="134" x2="190" y2="134" stroke="#444" marker-end="url(#a)"/>
  <line x1="390" y1="134" x2="450" y2="134" stroke="#444" marker-end="url(#a)"/>
  <line x1="190" y1="150" x2="280" y2="210" stroke="#888" stroke-dasharray="4"/>

  <defs>
    <marker id="a" markerWidth="10" markerHeight="10" refX="8" refY="3" orient="auto" markerUnits="strokeWidth">
      <path d="M0,0 L8,3 L0,6 Z" fill="#444"/>
    </marker>
  </defs>
</svg>
